<svg version="1.0" xmlns="http://www.w3.org/2000/svg" width="800.000000" height="800.000000" viewBox="0 0 800.000000 800.000000" preserveAspectRatio="xMidYMid meet">
  <metadata>
    <rdf:RDF xmlns:rdf="http://www.w3.org/1999/02/22-rdf-syntax-ns#" xmlns:rdfs="http://www.w3.org/2000/01/rdf-schema#" xmlns:dc="http://purl.org/dc/elements/1.1/">
      <rdf:Description dc:format="image/svg+xml" dc:Label="1" dc:ContentProducer="001191330110MACRLGPT8B00000" dc:ProduceID="421516593" dc:ReservedCode1="JfEtPXwMN7/d5dvgVLfGCyE5V0inthsK7dGlzIub4oA=" dc:ContentPropagator="001191330110MACRLGPT8B00000" dc:PropagateID="421516593" dc:ReservedCode2="JfEtPXwMN7/d5dvgVLfGCyE5V0inthsK7dGlzIub4oA="/>
    </rdf:RDF>
  </metadata>
  <g transform="translate(191.339467,618.571429) scale(0.053571,-0.053571)" fill="#000000" stroke="none">
    <path d="M3199 7973 c-27 -71 -32 -165 -35 -758 -4 -696 -4 -689 64 -745 63 -52 161 -51 220 4 13 11 34 39 45 61 21 38 22 55 26 365 1 179 -2 410 -9 515 -6 105 -13 267 -15 360 -1 94 -6 182 -10 198 l-7 27 -134 0 -134 0 -11 -27z"/>
    <path d="M1463 7225 c-54 -23 -73 -50 -73 -101 0 -44 4 -50 79 -128 43 -44 145 -157 226 -251 279 -322 330 -380 438 -497 118 -128 153 -159 210 -183 121 -50 267 32 267 152 0 60 -37 110 -150 206 -58 50 -215 201 -350 337 -412 416 -490 481 -577 480 -21 -1 -52 -7 -70 -15z"/>
    <path d="M5074 7216 c-17 -8 -164 -146 -325 -308 -162 -162 -367 -358 -456 -437 -89 -78 -172 -158 -184 -178 -45 -73 -22 -171 51 -220 50 -34 142 -32 195 4 104 70 768 699 866 820 93 116 108 184 55 263 -42 64 -129 88 -202 56z"/>
    <path d="M3289 5545 c-56 -18 -126 -78 -168 -143 -88 -138 -99 -267 -83 -1012 15 -694 37 -1216 59 -1393 15 -128 16 -261 14 -1357 -2 -899 0 -1232 9 -1280 23 -128 94 -200 199 -200 118 0 193 67 346 310 12 19 116 199 230 400 115 201 253 442 308 535 179 303 487 753 541 788 37 25 175 47 386 62 243 18 383 18 775 1 226 -11 422 -12 725 -7 470 8 469 8 539 88 87 99 73 238 -35 347 -39 38 -193 154 -334 251 -273 186 -499 358 -809 614 -248 205 -476 380 -1251 964 -676 508 -760 576 -1058 861 -79 76 -153 136 -184 152 -63 32 -145 40 -209 19z m491 -717 c85 -72 205 -167 265 -212 61 -46 290 -217 510 -381 394 -295 804 -617 1000 -786 364 -314 620 -520 912 -732 l172 -125 -312 -7 c-172 -3 -406 -5 -522 -3 -346 4 -921 -17 -1050 -40 -155 -27 -191 -47 -316 -171 -83 -83 -118 -128 -164 -206 -32 -55 -129 -219 -215 -365 -154 -257 -302 -520 -409 -725 -29 -55 -87 -162 -129 -237 l-77 -138 -6 343 c-4 188 -12 421 -18 517 -22 348 -36 1248 -36 2345 0 616 4 1155 9 1197 l8 78 111 -111 c62 -61 182 -170 267 -241z"/>
    <path d="M650 5473 c-41 -22 -75 -69 -84 -119 -10 -53 26 -122 80 -151 90 -50 168 -57 579 -58 461 0 816 22 893 55 29 12 55 33 65 49 19 32 22 86 8 123 -16 42 -73 88 -129 104 -48 14 -67 14 -241 -5 -336 -37 -488 -37 -781 -1 -41 5 -138 12 -215 15 -124 6 -144 4 -175 -12z"/>
    <path d="M4535 5472 c-107 -51 -136 -165 -63 -248 23 -25 48 -40 102 -56 67 -20 92 -22 421 -22 192 -1 493 3 667 8 294 9 320 11 355 30 76 43 97 150 44 223 -53 73 -82 79 -401 74 -445 -7 -703 -6 -900 2 -171 8 -188 7 -225 -11z"/>
    <path d="M2389 4566 c-19 -7 -46 -20 -60 -29 -13 -9 -193 -185 -399 -389 -207 -205 -411 -404 -454 -443 -92 -80 -121 -133 -113 -201 12 -107 121 -177 223 -144 22 8 67 40 104 75 36 34 121 108 190 166 250 209 624 602 704 740 51 89 26 171 -67 214 -59 28 -77 30 -128 11z"/>
  </g>
</svg>