<?xml version="1.0" standalone="no"?><!DOCTYPE svg PUBLIC "-//W3C//DTD SVG 1.1//EN" "http://www.w3.org/Graphics/SVG/1.1/DTD/svg11.dtd"><svg t="1777303393739" class="icon" viewBox="0 0 1024 1024" version="1.1" xmlns="http://www.w3.org/2000/svg" p-id="3500" xmlns:xlink="http://www.w3.org/1999/xlink" width="200" height="200"><path d="M512 1006.933333c-276.48 0-512-235.52-512-515.413333 0-61.44 6.826667-170.666667 47.786667-252.586667-13.653333-44.373333-27.306667-129.706667 23.893333-184.32 3.413333-3.413333 13.653333-6.826667 17.066667-3.413333 10.24 3.413333 13.653333 10.24 13.653333 17.066667 0 17.066667 10.24 54.613333 27.306667 81.92 10.24 17.066667 27.306667 37.546667 37.546666 40.96 20.48-3.413333 71.68-6.826667 98.986667 0 20.48-27.306667 58.026667-71.68 126.293333-71.68 6.826667 0 13.653333 3.413333 17.066667 10.24s0 13.653333-3.413333 17.066666c-27.306667 27.306667-64.853333 81.92-54.613334 112.64 6.826667 20.48 40.96 30.72 92.16 30.72h51.2c6.826667 0 13.653333 6.826667 17.066667 13.653334 3.413333 6.826667-3.413333 17.066667-10.24 20.48l-122.88 61.44c3.413333 17.066667 6.826667 40.96-10.24 54.613333-3.413333 3.413333-6.826667 3.413333-13.653333 3.413333-3.413333 0-10.24-3.413333-13.653334-3.413333 0 0-6.826667 3.413333-17.066666 10.24-6.826667 10.24-17.066667 27.306667-17.066667 44.373333 0 58.026667 75.093333 68.266667 119.466667 68.266667 54.613333 0 68.266667-10.24 81.92-17.066667 13.653333-6.826667 27.306667-17.066667 54.613333-17.066666 64.853333 0 85.333333 78.506667 85.333333 81.92 0 3.413333 0 10.24-3.413333 13.653333-3.413333 3.413333-6.826667 6.826667-13.653333 6.826667-30.72 0-64.853333 13.653333-102.4 30.72-27.306667 10.24-51.2 23.893333-81.92 30.72 23.893333 6.826667 47.786667 6.826667 81.92 6.826666 126.293333 0 221.866667-102.4 221.866666-238.933333 0-54.613333-3.413333-105.813333-30.72-143.36-3.413333-6.826667-3.413333-17.066667 3.413334-23.893333s17.066667-6.826667 23.893333 0c47.786667 34.133333 85.333333 105.813333 102.4 177.493333 3.413333-20.48 3.413333-44.373333 3.413333-61.44 0-129.706667-78.506667-303.786667-163.84-361.813333-6.826667-3.413333-10.24-13.653333-6.826666-20.48 3.413333-6.826667 13.653333-10.24 20.48-10.24C860.16 64.853333 1024 228.693333 1024 477.866667v34.133333c0 276.48-225.28 494.933333-512 494.933333zM81.92 249.173333C40.96 331.093333 34.133333 433.493333 34.133333 491.52 34.133333 750.933333 252.586667 972.8 512 972.8c269.653333 0 477.866667-201.386667 477.866667-460.8v-34.133333c0-187.733333-98.986667-324.266667-211.626667-389.12 68.266667 88.746667 109.226667 225.28 109.226667 320.853333 0 34.133333 0 88.746667-40.96 116.053333-3.413333 3.413333-10.24 3.413333-17.066667 0-6.826667 0-10.24-6.826667-10.24-13.653333-3.413333-40.96-17.066667-85.333333-37.546667-122.88 3.413333 23.893333 3.413333 44.373333 3.413334 68.266667 0 157.013333-109.226667 273.066667-256 273.066666-58.026667 0-98.986667-3.413333-146.773334-37.546666-6.826667 0-6.826667-10.24-6.826666-17.066667s10.24-10.24 17.066666-10.24c40.96 0 81.92-17.066667 122.88-34.133333 30.72-13.653333 61.44-27.306667 92.16-30.72-6.826667-17.066667-20.48-37.546667-44.373333-37.546667-17.066667 0-23.893333 3.413333-34.133333 10.24-17.066667 10.24-37.546667 23.893333-102.4 23.893333-139.946667 0-153.6-71.68-153.6-102.4 0-37.546667 27.306667-75.093333 58.026666-85.333333 6.826667-3.413333 13.653333-3.413333 17.066667-3.413333 0-6.826667-3.413333-17.066667-6.826667-23.893334-3.413333-6.826667 0-17.066667 6.826667-20.48l71.68-37.546666c-58.026667-3.413333-92.16-20.48-102.4-51.2-13.653333-37.546667 6.826667-78.506667 27.306667-109.226667-23.893333 10.24-44.373333 34.133333-54.613334 51.2l-3.413333 3.413333c-3.413333 6.826667-13.653333 10.24-20.48 6.826667-10.24-3.413333-78.506667-3.413333-95.573333 0-27.306667 6.826667-64.853333-44.373333-71.68-58.026667-6.826667-17.066667-17.066667-34.133333-23.893334-54.613333-17.066667 47.786667 3.413333 105.813333 6.826667 116.053333 3.413333 6.826667 3.413333 10.24 3.413333 13.653334 0 3.413333-3.413333 3.413333-3.413333 6.826666z" fill="" p-id="3501"></path></svg>